name D:\school\WTK\thesis\model\3dpredictsim\Results\MidTarsalJoint\Fal_s1_bCst_PF_Natali2010_ls148_MT_nl_fitted1_MTP_T2_ig24.mot
datacolumns 128
datarows 4
range 0.00000000 0.03382498
endheader
time	pelvis_tilt	pelvis_list	pelvis_rotation	pelvis_tx	pelvis_ty	pelvis_tz	hip_flexion_l	hip_adduction_l	hip_rotation_l	hip_flexion_r	hip_adduction_r	hip_rotation_r	knee_angle_l	knee_angle_r	ankle_angle_l	ankle_angle_r	subtalar_angle_l	subtalar_angle_r	mtj_angle_l	mtj_angle_r	mtp_angle_l	mtp_angle_r	lumbar_extension	lumbar_bending	lumbar_rotation	arm_flex_l	arm_add_l	arm_rot_l	arm_flex_r	arm_add_r	arm_rot_r	elbow_flex_l	elbow_flex_r	pro_sup_l	pro_sup_r	glut_med1_l/activation	glut_med2_l/activation	glut_med3_l/activation	glut_min1_l/activation	glut_min2_l/activation	glut_min3_l/activation	semimem_l/activation	semiten_l/activation	bifemlh_l/activation	bifemsh_l/activation	sar_l/activation	add_long_l/activation	add_brev_l/activation	add_mag1_l/activation	add_mag2_l/activation	add_mag3_l/activation	tfl_l/activation	pect_l/activation	grac_l/activation	glut_max1_l/activation	glut_max2_l/activation	glut_max3_l/activation	iliacus_l/activation	psoas_l/activation	quad_fem_l/activation	gem_l/activation	peri_l/activation	rect_fem_l/activation	vas_med_l/activation	vas_int_l/activation	vas_lat_l/activation	med_gas_l/activation	lat_gas_l/activation	soleus_l/activation	tib_post_l/activation	flex_dig_l/activation	flex_hal_l/activation	tib_ant_l/activation	per_brev_l/activation	per_long_l/activation	per_tert_l/activation	ext_dig_l/activation	ext_hal_l/activation	ercspn_l/activation	intobl_l/activation	extobl_l/activation	glut_med1_r/activation	glut_med2_r/activation	glut_med3_r/activation	glut_min1_r/activation	glut_min2_r/activation	glut_min3_r/activation	semimem_r/activation	semiten_r/activation	bifemlh_r/activation	bifemsh_r/activation	sar_r/activation	add_long_r/activation	add_brev_r/activation	add_mag1_r/activation	add_mag2_r/activation	add_mag3_r/activation	tfl_r/activation	pect_r/activation	grac_r/activation	glut_max1_r/activation	glut_max2_r/activation	glut_max3_r/activation	iliacus_r/activation	psoas_r/activation	quad_fem_r/activation	gem_r/activation	peri_r/activation	rect_fem_r/activation	vas_med_r/activation	vas_int_r/activation	vas_lat_r/activation	med_gas_r/activation	lat_gas_r/activation	soleus_r/activation	tib_post_r/activation	flex_dig_r/activation	flex_hal_r/activation	tib_ant_r/activation	per_brev_r/activation	per_long_r/activation	per_tert_r/activation	ext_dig_r/activation	ext_hal_r/activation	ercspn_r/activation	intobl_r/activation	extobl_r/activation	
          0.00000000	         -2.93017651	         -2.08660280	          5.06932939	          0.00000000	          0.91882196	         -0.00281109	        -16.66610980	         -0.58558908	          6.53761466	         29.05470270	          3.49616795	         -2.61122009	         -7.14638214	         -9.60814659	         -1.68058137	          5.92215822	          6.40775858	         -6.27541013	          5.01132008	          0.39949014	         15.68619157	         -0.75488394	         -2.25444953	          0.40602349	         -2.01174621	          4.59656982	        -13.45103833	         15.26421669	         -5.16851977	        -13.48726964	          5.70231404	         36.14852829	         17.47992825	         86.51662706	         86.51662706	          0.27216450	          0.09956992	          0.07580656	          0.29613712	          0.19018897	          0.11522155	          0.05000069	          0.05000014	          0.05000007	          0.05478146	          0.11402196	          0.08636007	          0.06413052	          0.05000056	          0.05000088	          0.05000025	          0.32244365	          0.09190790	          0.05000577	          0.05000058	          0.05000033	          0.05000031	          0.42904559	          0.66781368	          0.05000005	          0.05000023	          0.05939691	          0.25297317	          0.05000011	          0.05000011	          0.05000011	          0.28186000	          0.38080255	          0.33994621	          0.29693983	          0.28922893	          0.37491164	          0.05000001	          0.05936663	          0.08870070	          0.05000012	          0.05000002	          0.05000011	          0.05000000	          0.05000003	          0.05012525	          0.05939581	          0.05939581	          0.05000007	          0.05939584	          0.05939583	          0.05456819	          0.19896605	          0.08986822	          0.16741828	          0.07813276	          0.05000009	          0.16690499	          0.24246545	          0.23491336	          0.21694014	          0.11020616	          0.05000006	          0.05000229	          0.15092565	          0.05000059	          0.05044730	          0.16198765	          0.05000206	          0.05000019	          0.23951782	          0.30682410	          0.14221088	          0.05000008	          0.09903458	          0.09542456	          0.08812793	          0.06871237	          0.07175936	          0.06289094	          0.05000002	          0.05000024	          0.05000015	          0.47445138	          0.25239005	          0.17243032	          0.21117115	          0.48921457	          0.22745126	          0.05939582	          0.11586513	          0.09601193	
          0.01127499	         -2.92783425	         -2.17533733	          5.34613732	          0.01691787	          0.91798194	         -0.00260435	        -16.54401109	         -0.87722373	          6.33654627	         28.46115488	          3.87430823	         -2.37257396	         -9.07335040	        -10.11844288	         -2.24368635	          5.30297920	          7.39183285	         -6.62731121	          4.47298710	          0.30564219	         17.33740212	         -0.93185181	         -2.05484404	          0.60053125	         -2.07796939	          4.33472302	        -13.45389000	         15.61997744	         -6.02161457	        -13.48270599	          5.48973357	         37.29707090	         17.06897330	         86.51662706	         86.51662706	          0.22911082	          0.08381897	          0.06381475	          0.24929125	          0.16010300	          0.09699468	          0.05000127	          0.05000040	          0.05000058	          0.05000006	          0.09598490	          0.15985374	          0.05926507	          0.05939606	          0.05939556	          0.05939600	          0.27143636	          0.07736958	          0.05000101	          0.05000615	          0.05000764	          0.05928966	          0.36117488	          0.60833327	          0.05871164	          0.05933501	          0.05000106	          0.21295560	          0.14309536	          0.14015387	          0.13487228	          0.23727257	          0.32056340	          0.29489071	          0.24996857	          0.24347600	          0.31560461	          0.05000001	          0.05000004	          0.10324216	          0.05000004	          0.05000001	          0.05000007	          0.06237197	          0.06904282	          0.05939591	          0.05000000	          0.05000001	          0.08875609	          0.05000002	          0.05000002	          0.05000002	          0.16749163	          0.07565199	          0.14093439	          0.06577300	          0.05939976	          0.14050241	          0.32027927	          0.31559419	          0.20088879	          0.10881008	          0.05000014	          0.07653738	          0.14404487	          0.05000029	          0.09127880	          0.14311518	          0.05000010	          0.06104708	          0.56585116	          0.25828762	          0.11971458	          0.05939836	          0.09513213	          0.10251765	          0.08448658	          0.06785814	          0.07055721	          0.06192631	          0.05939584	          0.05000224	          0.05939568	          0.46300854	          0.26315389	          0.21602730	          0.17776609	          0.41182617	          0.19147077	          0.05000000	          0.09753643	          0.08082380	
          0.02254999	         -2.92079303	         -2.26645990	          5.59150031	          0.03414930	          0.91716841	         -0.00241943	        -16.37874969	         -1.16922480	          6.12597537	         27.74765773	          4.13651904	         -2.10828905	        -11.06607506	        -10.71964458	         -2.91226644	          4.75217798	          8.33729529	         -6.98055685	          3.74417634	          0.10069314	         19.08468578	         -1.02876207	         -1.83267641	          0.80506069	         -2.13249259	          3.99412682	        -13.45142594	         15.90172913	         -6.90066275	        -13.48608531	          5.32830667	         38.41874698	         16.70154391	         86.51662706	         86.51662706	          0.32602895	          0.07055966	          0.05371994	          0.32521596	          0.13477637	          0.08165112	          0.05000071	          0.05000008	          0.05000006	          0.05000022	          0.08080124	          0.13456651	          0.05000017	          0.05000032	          0.05000037	          0.05000027	          0.29737833	          0.06515530	          0.05000070	          0.05000099	          0.05000050	          0.05000026	          0.30404065	          0.57233217	          0.05000010	          0.05000044	          0.05000081	          0.17926905	          0.12045917	          0.11798299	          0.11353689	          0.19973841	          0.26985348	          0.24824194	          0.21042606	          0.20496059	          0.26567917	          0.05000001	          0.07759472	          0.12767597	          0.05000008	          0.05000004	          0.05000008	          0.05667342	          0.05812093	          0.05000008	          0.23716077	          0.23408063	          0.24663511	          0.38348370	          0.26451268	          0.19152524	          0.14099617	          0.06368477	          0.11864001	          0.06459380	          0.05000356	          0.11827635	          0.26961430	          0.26567038	          0.16911027	          0.10699476	          0.05000033	          0.06443012	          0.12125850	          0.05000382	          0.10694293	          0.12047586	          0.05141295	          0.05139013	          0.47633917	          0.21742914	          0.21443372	          0.05000215	          0.08008323	          0.08630044	          0.07112170	          0.05712368	          0.05939580	          0.05213023	          0.05000006	          0.05000020	          0.05000025	          0.51852901	          0.34756816	          0.18185403	          0.32827840	          0.50422777	          0.16118215	          0.06064322	          0.12126835	          0.06803829	
          0.03382498	         -2.91094225	         -2.34842283	          5.79997040	          0.05149838	          0.91641358	         -0.00220478	        -16.13446674	         -1.45079255	          5.93362664	         26.98564240	          4.36001342	         -1.84875380	        -13.16409289	        -11.24837764	         -3.65283875	          4.16527388	          9.25697419	         -7.32272188	          2.77842740	          0.20918984	         20.94207845	         -1.10928753	         -1.60985592	          1.00590047	         -2.17772713	          3.60781008	        -13.45496645	         16.13344945	         -7.76090881	        -13.48838748	          5.21640196	         39.49517233	         16.35491473	         86.51662706	         86.51662706	          0.28042935	          0.05939785	          0.05000013	          0.27377020	          0.11345612	          0.06873476	          0.05000075	          0.05000009	          0.05000009	          0.05000005	          0.06801937	          0.13123803	          0.08478623	          0.05263103	          0.05003249	          0.05321534	          0.25033633	          0.05775566	          0.05000051	          0.05000260	          0.05000186	          0.05000198	          0.25594447	          0.51342186	          0.05000047	          0.05000090	          0.05000010	          0.15091049	          0.12550587	          0.12626533	          0.11827692	          0.16814179	          0.22716535	          0.20897254	          0.17713877	          0.17253791	          0.22365140	          0.06081571	          0.06532072	          0.13699985	          0.05000017	          0.11405885	          0.05000032	          0.06897504	          0.05000000	          0.05000001	          0.33193851	          0.33291457	          0.34941523	          0.32282052	          0.22267123	          0.22657624	          0.11869202	          0.05923404	          0.09987239	          0.05437594	          0.05000052	          0.09956623	          0.22696403	          0.22364406	          0.14235891	          0.14291858	          0.05000024	          0.05423813	          0.10207675	          0.19779019	          0.16858717	          0.13839078	          0.05000003	          0.05000004	          0.40098708	          0.18303405	          0.18051278	          0.05000004	          0.10481831	          0.11923607	          0.08468953	          0.05000001	          0.05000005	          0.05000000	          0.05000005	          0.05000012	          0.05000013	          0.59627908	          0.34121130	          0.18745761	          0.49348571	          0.53311577	          0.28240685	          0.08458707	          0.10208492	          0.05727532	
